<?xml version="1.0" encoding="UTF-8"?>
<svg width="48px" height="48px" viewBox="0 0 48 48" version="1.1" xmlns="http://www.w3.org/2000/svg" xmlns:xlink="http://www.w3.org/1999/xlink">
    <!-- Generator: Sketch 53.2 (72643) - https://sketchapp.com -->
    <title>download-o-primary-old</title>
    <desc>Created with Sketch.</desc>
    <g id="download-o-primary-old" stroke="none" stroke-width="1" fill="none" fill-rule="evenodd">
        <g id="download-o-primary" transform="translate(4.000000, 3.000000)" fill="#1897F2" fill-rule="nonzero">
            <path d="M31.34375,24 L35,24 C37.4852814,24.0003938 39.5,26.0150683 39.5,28.5 L39.5,37.5 C39.5,39.9853255 37.4852814,42 35,42 L5,42 C2.51471863,42 0.5,39.9853255 0.5,37.5 L0.5,28.5 C0.5,26.0150683 2.51471863,24.0003938 5,24 L8.703125,24 L7.390625,22.6875 C6.5334457,21.8632017 6.0488387,20.7071229 6.03125,19.5 C6.0488387,17.0152652 8.0635573,15.0005907 10.53125,15 L12.5,15 L12.5,4.5 C12.5,2.01467455 14.5147186,0 17,0 L23,0 C25.4852814,0 27.5,2.01467455 27.5,4.5 L27.5,15 L29.46875,15 C30.6922657,15.0005907 31.8502667,15.4869317 32.703125,16.359375 C34.4365578,18.1245971 34.4085076,20.973639 32.65625,22.734375 L31.34375,24 Z M11.75,27 L5,27 C4.17157288,27 3.5,27.6715729 3.5,28.5 L3.5,37.5 C3.5,38.3284271 4.17157288,39 5,39 L35,39 C35.8284271,39 36.5,38.3284271 36.5,37.5 L36.5,28.5 C36.5,27.6715729 35.8284271,27 35,27 L28.25,27 L23.140625,32.015625 C21.4017709,33.7263025 18.5972177,33.724347 16.859375,32.015625 L11.75,27 L11.75,27 Z M24.5,18 L24.5,4.5 C24.4844584,3.67119613 23.8127965,3 23,3 L17,3 C16.1549278,3 15.483266,3.67119613 15.5,4.5 L15.5,18 L10.53125,18 C9.7029118,17.9925035 9.03125,18.6636996 9.03125,19.5 C9.03125,19.8936554 9.1928071,20.2788073 9.5,20.578125 L18.921875,29.859375 C19.5181607,30.4240708 20.4531356,30.4247222 21.03125,29.859375 L30.5,20.578125 C31.1104601,19.9824462 31.1198114,19.0332775 30.546875,18.421875 C30.2576002,18.1545298 29.8715487,17.9925035 29.46875,18 L24.5,18 Z" id="path-1"></path>
        </g>
    </g>
</svg>